<svg xmlns="http://www.w3.org/2000/svg" width="717" height="830" viewBox="0 0 717 830">
    <defs>
        <linearGradient id="a" x1="-26.071%" x2="44.511%" y1="100.499%" y2="48.384%">
            <stop offset="0%" stop-color="#43C9C6"/>
            <stop offset="100%" stop-color="#99FFFD"/>
        </linearGradient>
        <linearGradient id="b" x1="46.347%" x2="-12.524%" y1="45.829%" y2="57.633%">
            <stop offset="0%" stop-color="#7FF7F4"/>
            <stop offset="100%" stop-color="#43C9C6"/>
        </linearGradient>
        <linearGradient id="c" x1="26.652%" x2="49.598%" y1="64.189%" y2="43.651%">
            <stop offset="0%" stop-color="#43C9C6"/>
            <stop offset="100%" stop-color="#65DBD9"/>
        </linearGradient>
        <linearGradient id="d" x1="1.615%" x2="47.47%" y1="106.398%" y2="56.908%">
            <stop offset="0%" stop-color="#003F3E"/>
            <stop offset="100%" stop-color="#43C9C6"/>
        </linearGradient>
    </defs>
    <g fill="none" fill-rule="nonzero" opacity=".15">
        <path fill="url(#a)" d="M330.516 404.413C280.3 330.025 152.971 344.947 102.754 270.56c-27.452-40.646-21.314-96.771 2.344-139.645 2.231-4.12 4.686-8.017 7.142-11.915-24.886 23.163-46.87 49.11-65.171 77.172C12.252 249.847-8.616 315.437 3.436 378.244c6.36 33.185 21.537 63.92 36.491 94.21 38.834 78.73 77.78 157.46 116.615 236.192 10.044 20.378 20.645 41.314 34.37 59.354a1269.734 1269.734 0 0 0 114.942-168.263c34.483-60.246 63.385-137.863 24.662-195.324z" transform="rotate(170 453.406 421.325)"/>
        <path fill="url(#b)" d="M511.702 477.443c-35.024-74.412-50.418-168.429-122.698-207.751-55.326-30.077-132.18-18.938-174.454-65.612-30.564-33.753-29.56-87.334-9.816-128.439 5.8-11.919 12.827-23.058 20.747-33.641-41.271 19.828-79.643 45.895-112.883 76.863-2.454 3.898-4.908 7.797-7.138 11.919-23.648 42.998-29.783 99.03-2.343 139.69 50.195 74.411 177.466 59.484 227.661 133.896 38.706 57.48 9.816 135.122-24.54 195.276-33.797 59.04-72.28 115.294-114.89 168.318 10.374 13.701 22.42 25.62 37.256 34.31 44.506 25.955 100.724 15.15 150.25.668C493.074 769.299 602.499 719.394 703 655.564c-82.766-33.641-153.373-97.36-191.298-178.12z" transform="rotate(170 453.406 421.325)"/>
        <path fill="url(#c)" d="M387.666.244c-55.81 3.007-111.064 17.934-161.862 42.328-7.909 10.582-14.927 21.721-20.72 33.64-19.717 41.103-20.72 94.57 9.803 128.434 42.22 46.672 118.974 35.533 174.227 65.609 72.186 39.32 87.56 133.445 122.539 207.743C549.528 558.756 620.043 622.47 702.589 656c31.972-20.384 63.052-42.106 93.018-65.275 38.878-30.075 76.976-63.492 99.479-107.158 3.898-7.574 7.129-15.483 9.914-23.614-52.134 13.59-108.39 11.807-158.854-7.13-88.005-33.194-150.945-110.053-209.54-183.682-21.055-26.511-43.223-56.03-42.109-89.892.891-28.405 18.27-53.468 36.65-75.19 4.233-5.012 8.69-10.024 13.034-15.037-.112-.223-.112-.557-.223-.78C522.124 27.98 451.608-3.098 387.666.244z" transform="rotate(170 453.406 421.325)"/>
        <path fill="url(#d)" d="M494.04 179.267c-1.114 33.878 21.06 63.41 42.119 89.933 58.609 73.662 121.563 150.557 209.588 183.766 50.476 19.057 106.745 20.728 158.891 7.132 13.037-39.004 11.923-83.246-11.142-116.79-35.433-51.374-105.853-60.847-167.805-68.425-61.952-7.577-133.152-24.74-159.225-81.463-14.93-32.43-10.808-70.653-22.73-104.42l-13.037 15.045c-18.385 21.73-35.767 46.805-36.659 75.222z" transform="rotate(170 453.406 421.325)"/>
    </g>
</svg>
